<svg xmlns="http://www.w3.org/2000/svg" width="68.179" height="25" viewBox="0 0 68.179 25">
  <g id="Group_9153" data-name="Group 9153" transform="translate(-337.512 -5448.66)">
    <g id="Group_9150" data-name="Group 9150" transform="translate(354.212 5448.66)">
      <path id="Path_18230" data-name="Path 18230" d="M425.827,5448.66h3.141v3.207h-3.141Z" transform="translate(-425.827 -5448.66)" fill="#fff"/>
    </g>
    <g id="Group_9152" data-name="Group 9152" transform="translate(337.512 5453.834)">
      <g id="Group_9151" data-name="Group 9151">
        <path id="Path_18231" data-name="Path 18231" d="M337.512,5486.719h3.2c.473,1.7,1.723,2.474,4.363,2.474,2.029,0,3.279-.611,3.279-1.751,0-1.278-1.445-1.473-4-2.084-4.279-1.057-6.086-1.918-6.086-4.475,0-3.085,2.612-4.863,6.448-4.863,3.919,0,6.114,1.862,6.67,4.641h-3.168c-.445-1.25-1.612-1.862-3.557-1.862-2.029,0-3.224.695-3.224,1.751,0,.973.945,1.223,3.613,1.862,4.141.973,6.531,1.7,6.531,4.669,0,3.279-2.946,4.891-6.559,4.891C340.986,5491.972,338.1,5490.026,337.512,5486.719Z" transform="translate(-337.512 -5476.02)" fill="#fff"/>
        <path id="Path_18232" data-name="Path 18232" d="M425.827,5477.784h3.141v15.285h-3.141Z" transform="translate(-409.127 -5477.45)" fill="#fff"/>
        <path id="Path_18233" data-name="Path 18233" d="M631.442,5484c0,4.669-2.973,7.976-7.059,7.976a6.171,6.171,0,0,1-5.336-2.891v6.765h-3.141v-19.493h3.141v2.612a6.168,6.168,0,0,1,5.364-2.946C628.413,5476.02,631.442,5479.327,631.442,5484Zm-3.168,0c0-2.918-1.89-4.975-4.558-4.975a4.983,4.983,0,0,0,0,9.949C626.356,5488.97,628.274,5486.942,628.274,5484Z" transform="translate(-563.263 -5476.02)" fill="#fff"/>
      </g>
      <path id="Path_18234" data-name="Path 18234" d="M459.563,5476.354a6.305,6.305,0,0,1,3.382.61,6.5,6.5,0,0,1,1.57,1.335,6.514,6.514,0,0,1,9.9,0,6.519,6.519,0,0,1,8.331-1.335,6.52,6.52,0,0,1,3.139,5.577v9.1h-3.139v-8.988a3.389,3.389,0,1,0-6.761,0v8.988h-3.14v-8.988a3.39,3.39,0,1,0-6.764,0v8.988h-3.139v-8.988a3.132,3.132,0,0,0-3.382-3.3Z" transform="translate(-436.483 -5476.021)" fill="#fff"/>
    </g>
  </g>
</svg>
